<?xml version="1.0" encoding="UTF-8" standalone="no"?>
<!DOCTYPE svg PUBLIC "-//W3C//DTD SVG 1.1//EN" "http://www.w3.org/Graphics/SVG/1.1/DTD/svg11.dtd">
<svg xmlns="http://www.w3.org/2000/svg" version="1.1" viewBox="0 0 720 720">
<g stroke-width="2.00" fill="none" stroke-linecap="butt">
<path stroke="#ffcc80" vector-effect="non-scaling-stroke" d="
  M 190.75 259.68
  Q 178.86 257.12 166.82 255.39
  C 131.55 250.34 87.67 257.94 78.10 299.15
  Q 74.76 313.54 78.29 328.42
  C 84.25 353.58 103.69 366.66 128.70 368.08
  Q 167.11 370.27 193.15 340.78
  A 1.00 1.00 0.0 0 1 194.76 340.94
  Q 196.70 344.25 199.34 349.42
  Q 202.29 355.20 206.97 360.14
  C 211.15 364.54 214.54 365.68 219.82 362.31
  Q 226.65 357.95 233.26 353.23
  Q 238.64 349.40 235.86 343.68
  C 229.70 331.04 226.27 324.03 226.27 310.25
  Q 226.28 277.08 226.22 243.92
  C 226.15 204.59 212.59 179.10 171.13 173.90
  Q 131.43 168.93 95.27 186.91
  C 91.15 188.96 89.23 191.42 89.12 195.91
  Q 88.90 204.69 89.26 210.16
  C 89.78 217.93 98.74 213.82 102.45 212.24
  C 122.03 203.86 144.90 198.85 166.02 203.54
  C 175.00 205.53 183.04 209.75 186.98 217.79
  Q 192.10 228.25 192.10 242.51
  Q 192.11 250.60 191.96 258.72
  A 1.00 1.00 0.0 0 1 190.75 259.68"
/>
<path stroke="#ffcc80" vector-effect="non-scaling-stroke" d="
  M 524.27 257.89
  C 532.44 268.19 542.92 274.35 555.52 278.48
  Q 581.35 286.95 586.52 288.44
  C 599.34 292.15 614.58 299.01 613.94 314.96
  C 612.56 348.98 557.85 341.58 538.02 335.67
  C 532.16 333.92 525.69 331.12 519.59 328.65
  Q 514.77 326.70 512.77 329.96
  C 511.02 332.80 511.30 346.88 512.48 350.09
  C 514.41 355.33 521.71 358.55 526.59 360.35
  C 560.35 372.85 610.11 375.45 636.19 344.92
  C 646.71 332.61 650.45 314.61 646.74 298.92
  C 640.92 274.32 621.67 266.30 599.49 259.02
  Q 586.23 254.67 573.03 250.17
  C 561.00 246.07 548.31 240.13 548.08 225.55
  C 547.59 193.30 598.93 200.22 616.45 205.58
  Q 619.28 206.45 628.98 210.46
  C 634.43 212.72 637.61 211.53 637.92 205.17
  C 638.13 200.80 638.79 193.00 636.69 189.14
  C 633.21 182.77 623.31 179.94 616.51 177.96
  C 587.18 169.40 550.35 169.69 527.51 193.51
  C 510.41 211.33 509.26 238.96 524.27 257.89"
/>
<path stroke="#ffcc80" vector-effect="non-scaling-stroke" d="
  M 371.52 221.73
  Q 386.50 284.41 401.89 348.13
  C 403.65 355.43 404.56 363.41 413.51 363.46
  Q 424.24 363.51 435.01 363.31
  Q 442.44 363.17 444.49 356.70
  Q 456.39 319.19 497.35 186.29
  Q 498.69 181.92 496.13 179.67
  C 493.12 177.02 477.08 178.26 472.58 178.36
  C 463.15 178.57 462.04 183.70 460.02 191.51
  Q 442.65 258.86 425.67 325.32
  Q 424.86 328.50 424.12 325.30
  Q 408.42 257.60 392.54 190.15
  C 390.83 182.86 389.30 178.39 381.26 178.34
  Q 365.09 178.24 361.04 178.44
  Q 353.09 178.82 351.12 187.17
  Q 335.03 255.21 319.23 323.46
  Q 318.48 326.69 317.67 323.47
  Q 301.47 258.92 284.83 193.47
  C 282.63 184.79 281.61 178.20 272.07 178.23
  Q 261.66 178.27 251.24 178.31
  Q 245.59 178.33 245.84 183.96
  Q 245.93 185.98 246.51 187.92
  Q 271.62 271.77 297.04 355.69
  C 299.07 362.39 303.10 363.47 309.93 363.51
  Q 318.58 363.55 327.27 363.68
  Q 336.16 363.82 338.03 356.01
  Q 354.16 288.94 369.96 221.74
  Q 370.73 218.45 371.52 221.73"
/>
<path stroke="#ffcc80" vector-effect="non-scaling-stroke" d="
  M 557.64 433.97
  C 558.85 437.05 561.74 436.79 564.57 436.39
  Q 581.89 433.90 606.50 432.77
  C 617.25 432.28 634.27 431.96 643.19 439.05
  A 1.09 1.08 10.1 0 1 643.52 439.52
  C 646.92 449.86 643.71 462.70 640.71 472.82
  Q 634.14 494.98 625.29 516.40
  C 621.87 524.64 628.34 525.92 633.45 521.49
  C 658.32 499.89 671.68 465.02 674.13 433.00
  Q 674.67 426.04 673.31 419.23
  Q 672.79 416.67 670.50 415.42
  C 666.38 413.17 662.17 411.65 657.32 410.75
  C 626.64 405.01 592.18 408.54 564.99 424.68
  C 562.30 426.28 556.28 430.50 557.64 433.97"
/>
<path stroke="#ffcc80" vector-effect="non-scaling-stroke" d="
  M 53.99 431.81
  C 175.46 541.28 343.30 576.50 499.50 528.27
  C 540.19 515.71 579.85 497.27 614.26 472.01
  C 625.82 463.52 615.98 450.91 604.33 455.83
  C 523.47 489.90 434.42 507.38 346.58 503.87
  Q 192.85 497.73 59.27 421.53
  C 54.76 418.95 48.84 422.16 50.74 427.60
  Q 51.40 429.48 53.99 431.81"
/>
<path stroke="#ffcc80" vector-effect="non-scaling-stroke" d="
  M 112.65 309.51
  C 111.96 331.58 125.13 342.70 146.56 340.74
  C 168.29 338.76 187.57 327.41 191.33 304.29
  Q 192.39 297.83 191.97 284.33
  A 1.02 1.00 5.7 0 0 191.19 283.39
  C 167.03 277.78 113.89 269.90 112.65 309.51"
/>
</g>
<path fill="#ff9900" d="
  M 0.00 0.00
  L 720.00 0.00
  L 720.00 720.00
  L 0.00 720.00
  L 0.00 0.00
  Z
  M 190.75 259.68
  Q 178.86 257.12 166.82 255.39
  C 131.55 250.34 87.67 257.94 78.10 299.15
  Q 74.76 313.54 78.29 328.42
  C 84.25 353.58 103.69 366.66 128.70 368.08
  Q 167.11 370.27 193.15 340.78
  A 1.00 1.00 0.0 0 1 194.76 340.94
  Q 196.70 344.25 199.34 349.42
  Q 202.29 355.20 206.97 360.14
  C 211.15 364.54 214.54 365.68 219.82 362.31
  Q 226.65 357.95 233.26 353.23
  Q 238.64 349.40 235.86 343.68
  C 229.70 331.04 226.27 324.03 226.27 310.25
  Q 226.28 277.08 226.22 243.92
  C 226.15 204.59 212.59 179.10 171.13 173.90
  Q 131.43 168.93 95.27 186.91
  C 91.15 188.96 89.23 191.42 89.12 195.91
  Q 88.90 204.69 89.26 210.16
  C 89.78 217.93 98.74 213.82 102.45 212.24
  C 122.03 203.86 144.90 198.85 166.02 203.54
  C 175.00 205.53 183.04 209.75 186.98 217.79
  Q 192.10 228.25 192.10 242.51
  Q 192.11 250.60 191.96 258.72
  A 1.00 1.00 0.0 0 1 190.75 259.68
  Z
  M 524.27 257.89
  C 532.44 268.19 542.92 274.35 555.52 278.48
  Q 581.35 286.95 586.52 288.44
  C 599.34 292.15 614.58 299.01 613.94 314.96
  C 612.56 348.98 557.85 341.58 538.02 335.67
  C 532.16 333.92 525.69 331.12 519.59 328.65
  Q 514.77 326.70 512.77 329.96
  C 511.02 332.80 511.30 346.88 512.48 350.09
  C 514.41 355.33 521.71 358.55 526.59 360.35
  C 560.35 372.85 610.11 375.45 636.19 344.92
  C 646.71 332.61 650.45 314.61 646.74 298.92
  C 640.92 274.32 621.67 266.30 599.49 259.02
  Q 586.23 254.67 573.03 250.17
  C 561.00 246.07 548.31 240.13 548.08 225.55
  C 547.59 193.30 598.93 200.22 616.45 205.58
  Q 619.28 206.45 628.98 210.46
  C 634.43 212.72 637.61 211.53 637.92 205.17
  C 638.13 200.80 638.79 193.00 636.69 189.14
  C 633.21 182.77 623.31 179.94 616.51 177.96
  C 587.18 169.40 550.35 169.69 527.51 193.51
  C 510.41 211.33 509.26 238.96 524.27 257.89
  Z
  M 371.52 221.73
  Q 386.50 284.41 401.89 348.13
  C 403.65 355.43 404.56 363.41 413.51 363.46
  Q 424.24 363.51 435.01 363.31
  Q 442.44 363.17 444.49 356.70
  Q 456.39 319.19 497.35 186.29
  Q 498.69 181.92 496.13 179.67
  C 493.12 177.02 477.08 178.26 472.58 178.36
  C 463.15 178.57 462.04 183.70 460.02 191.51
  Q 442.65 258.86 425.67 325.32
  Q 424.86 328.50 424.12 325.30
  Q 408.42 257.60 392.54 190.15
  C 390.83 182.86 389.30 178.39 381.26 178.34
  Q 365.09 178.24 361.04 178.44
  Q 353.09 178.82 351.12 187.17
  Q 335.03 255.21 319.23 323.46
  Q 318.48 326.69 317.67 323.47
  Q 301.47 258.92 284.83 193.47
  C 282.63 184.79 281.61 178.20 272.07 178.23
  Q 261.66 178.27 251.24 178.31
  Q 245.59 178.33 245.84 183.96
  Q 245.93 185.98 246.51 187.92
  Q 271.62 271.77 297.04 355.69
  C 299.07 362.39 303.10 363.47 309.93 363.51
  Q 318.58 363.55 327.27 363.68
  Q 336.16 363.82 338.03 356.01
  Q 354.16 288.94 369.96 221.74
  Q 370.73 218.45 371.52 221.73
  Z
  M 557.64 433.97
  C 558.85 437.05 561.74 436.79 564.57 436.39
  Q 581.89 433.90 606.50 432.77
  C 617.25 432.28 634.27 431.96 643.19 439.05
  A 1.09 1.08 10.1 0 1 643.52 439.52
  C 646.92 449.86 643.71 462.70 640.71 472.82
  Q 634.14 494.98 625.29 516.40
  C 621.87 524.64 628.34 525.92 633.45 521.49
  C 658.32 499.89 671.68 465.02 674.13 433.00
  Q 674.67 426.04 673.31 419.23
  Q 672.79 416.67 670.50 415.42
  C 666.38 413.17 662.17 411.65 657.32 410.75
  C 626.64 405.01 592.18 408.54 564.99 424.68
  C 562.30 426.28 556.28 430.50 557.64 433.97
  Z
  M 53.99 431.81
  C 175.46 541.28 343.30 576.50 499.50 528.27
  C 540.19 515.71 579.85 497.27 614.26 472.01
  C 625.82 463.52 615.98 450.91 604.33 455.83
  C 523.47 489.90 434.42 507.38 346.58 503.87
  Q 192.85 497.73 59.27 421.53
  C 54.76 418.95 48.84 422.16 50.74 427.60
  Q 51.40 429.48 53.99 431.81
  Z"
/>
<path fill="#ffffff" d="
  M 191.96 258.72
  Q 192.11 250.60 192.10 242.51
  Q 192.10 228.25 186.98 217.79
  C 183.04 209.75 175.00 205.53 166.02 203.54
  C 144.90 198.85 122.03 203.86 102.45 212.24
  C 98.74 213.82 89.78 217.93 89.26 210.16
  Q 88.90 204.69 89.12 195.91
  C 89.23 191.42 91.15 188.96 95.27 186.91
  Q 131.43 168.93 171.13 173.90
  C 212.59 179.10 226.15 204.59 226.22 243.92
  Q 226.28 277.08 226.27 310.25
  C 226.27 324.03 229.70 331.04 235.86 343.68
  Q 238.64 349.40 233.26 353.23
  Q 226.65 357.95 219.82 362.31
  C 214.54 365.68 211.15 364.54 206.97 360.14
  Q 202.29 355.20 199.34 349.42
  Q 196.70 344.25 194.76 340.94
  A 1.00 1.00 0.0 0 0 193.15 340.78
  Q 167.11 370.27 128.70 368.08
  C 103.69 366.66 84.25 353.58 78.29 328.42
  Q 74.76 313.54 78.10 299.15
  C 87.67 257.94 131.55 250.34 166.82 255.39
  Q 178.86 257.12 190.75 259.68
  A 1.00 1.00 0.0 0 0 191.96 258.72
  Z
  M 112.65 309.51
  C 111.96 331.58 125.13 342.70 146.56 340.74
  C 168.29 338.76 187.57 327.41 191.33 304.29
  Q 192.39 297.83 191.97 284.33
  A 1.02 1.00 5.7 0 0 191.19 283.39
  C 167.03 277.78 113.89 269.90 112.65 309.51
  Z"
/>
<path fill="#ffffff" d="
  M 524.27 257.89
  C 509.26 238.96 510.41 211.33 527.51 193.51
  C 550.35 169.69 587.18 169.40 616.51 177.96
  C 623.31 179.94 633.21 182.77 636.69 189.14
  C 638.79 193.00 638.13 200.80 637.92 205.17
  C 637.61 211.53 634.43 212.72 628.98 210.46
  Q 619.28 206.45 616.45 205.58
  C 598.93 200.22 547.59 193.30 548.08 225.55
  C 548.31 240.13 561.00 246.07 573.03 250.17
  Q 586.23 254.67 599.49 259.02
  C 621.67 266.30 640.92 274.32 646.74 298.92
  C 650.45 314.61 646.71 332.61 636.19 344.92
  C 610.11 375.45 560.35 372.85 526.59 360.35
  C 521.71 358.55 514.41 355.33 512.48 350.09
  C 511.30 346.88 511.02 332.80 512.77 329.96
  Q 514.77 326.70 519.59 328.65
  C 525.69 331.12 532.16 333.92 538.02 335.67
  C 557.85 341.58 612.56 348.98 613.94 314.96
  C 614.58 299.01 599.34 292.15 586.52 288.44
  Q 581.35 286.95 555.52 278.48
  C 542.92 274.35 532.44 268.19 524.27 257.89
  Z"
/>
<path fill="#ffffff" d="
  M 371.52 221.73
  Q 370.73 218.45 369.96 221.74
  Q 354.16 288.94 338.03 356.01
  Q 336.16 363.82 327.27 363.68
  Q 318.58 363.55 309.93 363.51
  C 303.10 363.47 299.07 362.39 297.04 355.69
  Q 271.62 271.77 246.51 187.92
  Q 245.93 185.98 245.84 183.96
  Q 245.59 178.33 251.24 178.31
  Q 261.66 178.27 272.07 178.23
  C 281.61 178.20 282.63 184.79 284.83 193.47
  Q 301.47 258.92 317.67 323.47
  Q 318.48 326.69 319.23 323.46
  Q 335.03 255.21 351.12 187.17
  Q 353.09 178.82 361.04 178.44
  Q 365.09 178.24 381.26 178.34
  C 389.30 178.39 390.83 182.86 392.54 190.15
  Q 408.42 257.60 424.12 325.30
  Q 424.86 328.50 425.67 325.32
  Q 442.65 258.86 460.02 191.51
  C 462.04 183.70 463.15 178.57 472.58 178.36
  C 477.08 178.26 493.12 177.02 496.13 179.67
  Q 498.69 181.92 497.35 186.29
  Q 456.39 319.19 444.49 356.70
  Q 442.44 363.17 435.01 363.31
  Q 424.24 363.51 413.51 363.46
  C 404.56 363.41 403.65 355.43 401.89 348.13
  Q 386.50 284.41 371.52 221.73
  Z"
/>
<path fill="#ff9900" d="
  M 146.56 340.74
  C 125.13 342.70 111.96 331.58 112.65 309.51
  C 113.89 269.90 167.03 277.78 191.19 283.39
  A 1.02 1.00 5.7 0 1 191.97 284.33
  Q 192.39 297.83 191.33 304.29
  C 187.57 327.41 168.29 338.76 146.56 340.74
  Z"
/>
<path fill="#ffffff" d="
  M 557.64 433.97
  C 556.28 430.50 562.30 426.28 564.99 424.68
  C 592.18 408.54 626.64 405.01 657.32 410.75
  C 662.17 411.65 666.38 413.17 670.50 415.42
  Q 672.79 416.67 673.31 419.23
  Q 674.67 426.04 674.13 433.00
  C 671.68 465.02 658.32 499.89 633.45 521.49
  C 628.34 525.92 621.87 524.64 625.29 516.40
  Q 634.14 494.98 640.71 472.82
  C 643.71 462.70 646.92 449.86 643.52 439.52
  A 1.09 1.08 10.1 0 0 643.19 439.05
  C 634.27 431.96 617.25 432.28 606.50 432.77
  Q 581.89 433.90 564.57 436.39
  C 561.74 436.79 558.85 437.05 557.64 433.97
  Z"
/>
<path fill="#ffffff" d="
  M 499.50 528.27
  C 343.30 576.50 175.46 541.28 53.99 431.81
  Q 51.40 429.48 50.74 427.60
  C 48.84 422.16 54.76 418.95 59.27 421.53
  Q 192.85 497.73 346.58 503.87
  C 434.42 507.38 523.47 489.90 604.33 455.83
  C 615.98 450.91 625.82 463.52 614.26 472.01
  C 579.85 497.27 540.19 515.71 499.50 528.27
  Z"
/>
</svg>
